G04*
G04 #@! TF.GenerationSoftware,Altium Limited,Altium Designer,24.7.2 (38)*
G04*
G04 Layer_Physical_Order=4*
G04 Layer_Color=16711680*
%FSLAX44Y44*%
%MOMM*%
G71*
G04*
G04 #@! TF.SameCoordinates,BF9B61CE-A776-46F3-A754-6D37A8E32182*
G04*
G04*
G04 #@! TF.FilePolarity,Positive*
G04*
G01*
G75*
%ADD61C,1.0000*%
%ADD62C,1.0670*%
%ADD63C,2.4000*%
%ADD64C,1.2700*%
%ADD65C,0.5000*%
D61*
X800000Y870000D02*
D03*
Y600000D02*
D03*
X1150000D02*
D03*
Y870000D02*
D03*
D62*
X1008900Y842010D02*
D03*
Y821690D02*
D03*
X1059700Y831850D02*
D03*
D63*
X1027950Y806450D02*
D03*
X1059700D02*
D03*
Y857250D02*
D03*
X1027950D02*
D03*
D64*
X877000Y812250D02*
D03*
X876796Y841317D02*
D03*
X831056Y773840D02*
D03*
X832000Y781050D02*
D03*
X975080Y790956D02*
D03*
X1033780Y786130D02*
D03*
X999549Y677613D02*
D03*
X910844Y813646D02*
D03*
X1032764Y762750D02*
D03*
X1006348Y690000D02*
D03*
X864616Y874604D02*
D03*
X904000Y637794D02*
D03*
X895495Y714248D02*
D03*
X997966Y781050D02*
D03*
X852424Y767500D02*
D03*
X894334Y589788D02*
D03*
X824992Y745744D02*
D03*
X927265Y814921D02*
D03*
X996500Y701294D02*
D03*
X868680Y751840D02*
D03*
X1081024Y658622D02*
D03*
X966500D02*
D03*
X1106678Y711200D02*
D03*
X1020064Y710946D02*
D03*
X1017670Y781050D02*
D03*
X1048512Y787400D02*
D03*
X992886Y800862D02*
D03*
X960080Y845058D02*
D03*
X897128D02*
D03*
D65*
X839000Y820000D02*
D03*
X850000D02*
D03*
Y831000D02*
D03*
X839000D02*
D03*
X935580Y761140D02*
D03*
X946580D02*
D03*
X957580D02*
D03*
X968580D02*
D03*
X979580D02*
D03*
X935580Y750140D02*
D03*
X946580D02*
D03*
X957580D02*
D03*
X968580D02*
D03*
X979580D02*
D03*
X935580Y739140D02*
D03*
X946580D02*
D03*
X957580D02*
D03*
X968580D02*
D03*
X979580D02*
D03*
X935580Y728140D02*
D03*
X946580D02*
D03*
X957580D02*
D03*
X968580D02*
D03*
X979580D02*
D03*
X935580Y717140D02*
D03*
X946580D02*
D03*
X957580D02*
D03*
X968580D02*
D03*
X979580D02*
D03*
M02*
