G04*
G04 #@! TF.GenerationSoftware,Altium Limited,Altium Designer,24.7.2 (38)*
G04*
G04 Layer_Color=8421504*
%FSLAX44Y44*%
%MOMM*%
G71*
G04*
G04 #@! TF.SameCoordinates,BF9B61CE-A776-46F3-A754-6D37A8E32182*
G04*
G04*
G04 #@! TF.FilePolarity,Positive*
G04*
G01*
G75*
%ADD16R,0.8000X0.3500*%
%ADD17R,0.3500X0.8500*%
%ADD18R,2.7000X2.6000*%
%ADD19R,1.0000X2.9000*%
%ADD20R,0.6500X1.7000*%
%ADD21R,0.8721X1.0043*%
G04:AMPARAMS|DCode=22|XSize=1.0043mm|YSize=0.8721mm|CornerRadius=0.4361mm|HoleSize=0mm|Usage=FLASHONLY|Rotation=270.000|XOffset=0mm|YOffset=0mm|HoleType=Round|Shape=RoundedRectangle|*
%AMROUNDEDRECTD22*
21,1,1.0043,0.0000,0,0,270.0*
21,1,0.1322,0.8721,0,0,270.0*
1,1,0.8721,0.0000,-0.0661*
1,1,0.8721,0.0000,0.0661*
1,1,0.8721,0.0000,0.0661*
1,1,0.8721,0.0000,-0.0661*
%
%ADD22ROUNDEDRECTD22*%
G04:AMPARAMS|DCode=23|XSize=1.0043mm|YSize=3.1821mm|CornerRadius=0.4369mm|HoleSize=0mm|Usage=FLASHONLY|Rotation=270.000|XOffset=0mm|YOffset=0mm|HoleType=Round|Shape=RoundedRectangle|*
%AMROUNDEDRECTD23*
21,1,1.0043,2.3084,0,0,270.0*
21,1,0.1306,3.1821,0,0,270.0*
1,1,0.8737,-1.1542,-0.0653*
1,1,0.8737,-1.1542,0.0653*
1,1,0.8737,1.1542,0.0653*
1,1,0.8737,1.1542,-0.0653*
%
%ADD23ROUNDEDRECTD23*%
%ADD24O,0.8000X0.2500*%
%ADD25O,0.2500X0.8000*%
%ADD26R,5.6000X5.6000*%
G04:AMPARAMS|DCode=27|XSize=0.55mm|YSize=0.5mm|CornerRadius=0.0625mm|HoleSize=0mm|Usage=FLASHONLY|Rotation=270.000|XOffset=0mm|YOffset=0mm|HoleType=Round|Shape=RoundedRectangle|*
%AMROUNDEDRECTD27*
21,1,0.5500,0.3750,0,0,270.0*
21,1,0.4250,0.5000,0,0,270.0*
1,1,0.1250,-0.1875,-0.2125*
1,1,0.1250,-0.1875,0.2125*
1,1,0.1250,0.1875,0.2125*
1,1,0.1250,0.1875,-0.2125*
%
%ADD27ROUNDEDRECTD27*%
G04:AMPARAMS|DCode=28|XSize=0.25mm|YSize=0.35mm|CornerRadius=0.0313mm|HoleSize=0mm|Usage=FLASHONLY|Rotation=0.000|XOffset=0mm|YOffset=0mm|HoleType=Round|Shape=RoundedRectangle|*
%AMROUNDEDRECTD28*
21,1,0.2500,0.2875,0,0,0.0*
21,1,0.1875,0.3500,0,0,0.0*
1,1,0.0625,0.0938,-0.1438*
1,1,0.0625,-0.0938,-0.1438*
1,1,0.0625,-0.0938,0.1438*
1,1,0.0625,0.0938,0.1438*
%
%ADD28ROUNDEDRECTD28*%
G04:AMPARAMS|DCode=29|XSize=0.6mm|YSize=0.7mm|CornerRadius=0.075mm|HoleSize=0mm|Usage=FLASHONLY|Rotation=0.000|XOffset=0mm|YOffset=0mm|HoleType=Round|Shape=RoundedRectangle|*
%AMROUNDEDRECTD29*
21,1,0.6000,0.5500,0,0,0.0*
21,1,0.4500,0.7000,0,0,0.0*
1,1,0.1500,0.2250,-0.2750*
1,1,0.1500,-0.2250,-0.2750*
1,1,0.1500,-0.2250,0.2750*
1,1,0.1500,0.2250,0.2750*
%
%ADD29ROUNDEDRECTD29*%
G04:AMPARAMS|DCode=30|XSize=1.4mm|YSize=1.7mm|CornerRadius=0.175mm|HoleSize=0mm|Usage=FLASHONLY|Rotation=270.000|XOffset=0mm|YOffset=0mm|HoleType=Round|Shape=RoundedRectangle|*
%AMROUNDEDRECTD30*
21,1,1.4000,1.3500,0,0,270.0*
21,1,1.0500,1.7000,0,0,270.0*
1,1,0.3500,-0.6750,-0.5250*
1,1,0.3500,-0.6750,0.5250*
1,1,0.3500,0.6750,0.5250*
1,1,0.3500,0.6750,-0.5250*
%
%ADD30ROUNDEDRECTD30*%
G04:AMPARAMS|DCode=31|XSize=1.4mm|YSize=1.7mm|CornerRadius=0.175mm|HoleSize=0mm|Usage=FLASHONLY|Rotation=0.000|XOffset=0mm|YOffset=0mm|HoleType=Round|Shape=RoundedRectangle|*
%AMROUNDEDRECTD31*
21,1,1.4000,1.3500,0,0,0.0*
21,1,1.0500,1.7000,0,0,0.0*
1,1,0.3500,0.5250,-0.6750*
1,1,0.3500,-0.5250,-0.6750*
1,1,0.3500,-0.5250,0.6750*
1,1,0.3500,0.5250,0.6750*
%
%ADD31ROUNDEDRECTD31*%
G04:AMPARAMS|DCode=32|XSize=0.55mm|YSize=0.5mm|CornerRadius=0.0625mm|HoleSize=0mm|Usage=FLASHONLY|Rotation=180.000|XOffset=0mm|YOffset=0mm|HoleType=Round|Shape=RoundedRectangle|*
%AMROUNDEDRECTD32*
21,1,0.5500,0.3750,0,0,180.0*
21,1,0.4250,0.5000,0,0,180.0*
1,1,0.1250,-0.2125,0.1875*
1,1,0.1250,0.2125,0.1875*
1,1,0.1250,0.2125,-0.1875*
1,1,0.1250,-0.2125,-0.1875*
%
%ADD32ROUNDEDRECTD32*%
%ADD33R,1.8000X1.2000*%
%ADD34R,1.3800X0.4500*%
%ADD35R,1.5500X1.4250*%
%ADD36R,1.9000X1.0000*%
%ADD37R,1.9000X1.8000*%
%ADD38R,1.3000X1.6500*%
D16*
X824500Y838000D02*
D03*
Y833000D02*
D03*
Y828000D02*
D03*
Y823000D02*
D03*
Y818000D02*
D03*
Y813000D02*
D03*
X864500Y838000D02*
D03*
Y833000D02*
D03*
Y828000D02*
D03*
Y823000D02*
D03*
Y818000D02*
D03*
Y813000D02*
D03*
D17*
X832000Y805750D02*
D03*
X837000D02*
D03*
X842000D02*
D03*
X847000D02*
D03*
X852000D02*
D03*
X857000D02*
D03*
X832000Y845250D02*
D03*
X837000D02*
D03*
X842000D02*
D03*
X847000D02*
D03*
X852000D02*
D03*
X857000D02*
D03*
D18*
X844500Y825500D02*
D03*
D19*
X885500Y636750D02*
D03*
X985000D02*
D03*
D20*
X904000Y608750D02*
D03*
X941500D02*
D03*
X916500D02*
D03*
X929000D02*
D03*
X954000D02*
D03*
X966500D02*
D03*
D21*
X1064650Y665950D02*
D03*
D22*
X1041750D02*
D03*
X1018850D02*
D03*
D23*
X1041750Y600050D02*
D03*
D24*
X923580Y766640D02*
D03*
Y761640D02*
D03*
Y756640D02*
D03*
Y751640D02*
D03*
Y746640D02*
D03*
Y741640D02*
D03*
Y736640D02*
D03*
Y731640D02*
D03*
Y726640D02*
D03*
Y721640D02*
D03*
Y716640D02*
D03*
Y711640D02*
D03*
X991580D02*
D03*
Y716640D02*
D03*
Y721640D02*
D03*
Y726640D02*
D03*
Y731640D02*
D03*
Y736640D02*
D03*
Y741640D02*
D03*
Y746640D02*
D03*
Y751640D02*
D03*
Y756640D02*
D03*
Y761640D02*
D03*
Y766640D02*
D03*
D25*
X930080Y705140D02*
D03*
X935080D02*
D03*
X940080D02*
D03*
X945080D02*
D03*
X950080D02*
D03*
X955080D02*
D03*
X960080D02*
D03*
X965080D02*
D03*
X970080D02*
D03*
X975080D02*
D03*
X980080D02*
D03*
X985080D02*
D03*
Y773140D02*
D03*
X980080D02*
D03*
X975080D02*
D03*
X970080D02*
D03*
X965080D02*
D03*
X960080D02*
D03*
X955080D02*
D03*
X950080D02*
D03*
X945080D02*
D03*
X940080D02*
D03*
X935080D02*
D03*
X930080D02*
D03*
D26*
X957580Y739140D02*
D03*
D27*
X818500Y720000D02*
D03*
X827500D02*
D03*
X832000Y791500D02*
D03*
X823000D02*
D03*
X855250D02*
D03*
X846250D02*
D03*
X853500Y860500D02*
D03*
X862500D02*
D03*
X987500Y690000D02*
D03*
X996500D02*
D03*
X924500Y800000D02*
D03*
X915500D02*
D03*
X966000Y690000D02*
D03*
X975000D02*
D03*
X1037000Y877750D02*
D03*
X1028000D02*
D03*
X1068000Y717750D02*
D03*
X1077000D02*
D03*
D28*
X818750Y733000D02*
D03*
X824250D02*
D03*
X1114500Y643500D02*
D03*
X1120000D02*
D03*
X945000Y790000D02*
D03*
X939500D02*
D03*
X1056250Y876000D02*
D03*
X1061750D02*
D03*
X1029750Y715000D02*
D03*
X1035250D02*
D03*
X937000Y806750D02*
D03*
X942500D02*
D03*
X923750Y788000D02*
D03*
X929250D02*
D03*
D29*
X1120000Y630250D02*
D03*
X1110000D02*
D03*
X1035000Y726750D02*
D03*
X1025000D02*
D03*
X1067000Y733000D02*
D03*
X1077000D02*
D03*
D30*
X1091000Y644930D02*
D03*
Y622070D02*
D03*
D31*
X1047070Y685000D02*
D03*
X1069930D02*
D03*
D32*
X888750Y798250D02*
D03*
Y789250D02*
D03*
X887500Y767500D02*
D03*
Y758500D02*
D03*
X907500Y726500D02*
D03*
Y717500D02*
D03*
X905000Y767000D02*
D03*
Y758000D02*
D03*
X1022750Y771750D02*
D03*
Y762750D02*
D03*
X862750Y714000D02*
D03*
Y723000D02*
D03*
X1055250Y729500D02*
D03*
Y720500D02*
D03*
D33*
X850000Y682000D02*
D03*
X810000D02*
D03*
Y658000D02*
D03*
X850000D02*
D03*
D34*
X1109750Y764750D02*
D03*
Y758250D02*
D03*
Y751750D02*
D03*
Y745250D02*
D03*
Y738750D02*
D03*
D35*
X1110600Y776625D02*
D03*
Y726875D02*
D03*
D36*
X1136350Y767250D02*
D03*
D37*
Y740250D02*
D03*
D38*
Y785500D02*
D03*
Y718000D02*
D03*
M02*
