G04*
G04 #@! TF.GenerationSoftware,Altium Limited,Altium Designer,24.7.2 (38)*
G04*
G04 Layer_Color=8388736*
%FSLAX44Y44*%
%MOMM*%
G71*
G04*
G04 #@! TF.SameCoordinates,BF9B61CE-A776-46F3-A754-6D37A8E32182*
G04*
G04*
G04 #@! TF.FilePolarity,Negative*
G04*
G01*
G75*
%ADD21R,0.8721X1.0043*%
G04:AMPARAMS|DCode=22|XSize=1.0043mm|YSize=0.8721mm|CornerRadius=0.4361mm|HoleSize=0mm|Usage=FLASHONLY|Rotation=270.000|XOffset=0mm|YOffset=0mm|HoleType=Round|Shape=RoundedRectangle|*
%AMROUNDEDRECTD22*
21,1,1.0043,0.0000,0,0,270.0*
21,1,0.1322,0.8721,0,0,270.0*
1,1,0.8721,0.0000,-0.0661*
1,1,0.8721,0.0000,0.0661*
1,1,0.8721,0.0000,0.0661*
1,1,0.8721,0.0000,-0.0661*
%
%ADD22ROUNDEDRECTD22*%
G04:AMPARAMS|DCode=23|XSize=1.0043mm|YSize=3.1821mm|CornerRadius=0.4369mm|HoleSize=0mm|Usage=FLASHONLY|Rotation=270.000|XOffset=0mm|YOffset=0mm|HoleType=Round|Shape=RoundedRectangle|*
%AMROUNDEDRECTD23*
21,1,1.0043,2.3084,0,0,270.0*
21,1,0.1306,3.1821,0,0,270.0*
1,1,0.8737,-1.1542,-0.0653*
1,1,0.8737,-1.1542,0.0653*
1,1,0.8737,1.1542,0.0653*
1,1,0.8737,1.1542,-0.0653*
%
%ADD23ROUNDEDRECTD23*%
%ADD34R,1.3800X0.4500*%
%ADD35R,1.5500X1.4250*%
%ADD36R,1.9000X1.0000*%
%ADD37R,1.9000X1.8000*%
%ADD38R,1.3000X1.6500*%
%ADD39R,1.0032X0.5532*%
%ADD40R,0.5532X1.0532*%
%ADD41R,2.9032X2.8032*%
%ADD42R,1.2032X3.1032*%
%ADD43R,0.8532X1.9032*%
%ADD44O,1.0032X0.4532*%
%ADD45O,0.4532X1.0032*%
%ADD46R,5.8032X5.8032*%
G04:AMPARAMS|DCode=47|XSize=0.7532mm|YSize=0.7032mm|CornerRadius=0.1641mm|HoleSize=0mm|Usage=FLASHONLY|Rotation=270.000|XOffset=0mm|YOffset=0mm|HoleType=Round|Shape=RoundedRectangle|*
%AMROUNDEDRECTD47*
21,1,0.7532,0.3750,0,0,270.0*
21,1,0.4250,0.7032,0,0,270.0*
1,1,0.3282,-0.1875,-0.2125*
1,1,0.3282,-0.1875,0.2125*
1,1,0.3282,0.1875,0.2125*
1,1,0.3282,0.1875,-0.2125*
%
%ADD47ROUNDEDRECTD47*%
G04:AMPARAMS|DCode=48|XSize=0.35mm|YSize=0.45mm|CornerRadius=0.0813mm|HoleSize=0mm|Usage=FLASHONLY|Rotation=0.000|XOffset=0mm|YOffset=0mm|HoleType=Round|Shape=RoundedRectangle|*
%AMROUNDEDRECTD48*
21,1,0.3500,0.2875,0,0,0.0*
21,1,0.1875,0.4500,0,0,0.0*
1,1,0.1625,0.0938,-0.1438*
1,1,0.1625,-0.0938,-0.1438*
1,1,0.1625,-0.0938,0.1438*
1,1,0.1625,0.0938,0.1438*
%
%ADD48ROUNDEDRECTD48*%
%ADD49C,1.0662*%
G04:AMPARAMS|DCode=50|XSize=0.8032mm|YSize=0.9032mm|CornerRadius=0.1766mm|HoleSize=0mm|Usage=FLASHONLY|Rotation=0.000|XOffset=0mm|YOffset=0mm|HoleType=Round|Shape=RoundedRectangle|*
%AMROUNDEDRECTD50*
21,1,0.8032,0.5500,0,0,0.0*
21,1,0.4500,0.9032,0,0,0.0*
1,1,0.3532,0.2250,-0.2750*
1,1,0.3532,-0.2250,-0.2750*
1,1,0.3532,-0.2250,0.2750*
1,1,0.3532,0.2250,0.2750*
%
%ADD50ROUNDEDRECTD50*%
G04:AMPARAMS|DCode=51|XSize=1.6032mm|YSize=1.9032mm|CornerRadius=0.2766mm|HoleSize=0mm|Usage=FLASHONLY|Rotation=270.000|XOffset=0mm|YOffset=0mm|HoleType=Round|Shape=RoundedRectangle|*
%AMROUNDEDRECTD51*
21,1,1.6032,1.3500,0,0,270.0*
21,1,1.0500,1.9032,0,0,270.0*
1,1,0.5532,-0.6750,-0.5250*
1,1,0.5532,-0.6750,0.5250*
1,1,0.5532,0.6750,0.5250*
1,1,0.5532,0.6750,-0.5250*
%
%ADD51ROUNDEDRECTD51*%
G04:AMPARAMS|DCode=52|XSize=1.6032mm|YSize=1.9032mm|CornerRadius=0.2766mm|HoleSize=0mm|Usage=FLASHONLY|Rotation=0.000|XOffset=0mm|YOffset=0mm|HoleType=Round|Shape=RoundedRectangle|*
%AMROUNDEDRECTD52*
21,1,1.6032,1.3500,0,0,0.0*
21,1,1.0500,1.9032,0,0,0.0*
1,1,0.5532,0.5250,-0.6750*
1,1,0.5532,-0.5250,-0.6750*
1,1,0.5532,-0.5250,0.6750*
1,1,0.5532,0.5250,0.6750*
%
%ADD52ROUNDEDRECTD52*%
G04:AMPARAMS|DCode=53|XSize=0.7532mm|YSize=0.7032mm|CornerRadius=0.1641mm|HoleSize=0mm|Usage=FLASHONLY|Rotation=180.000|XOffset=0mm|YOffset=0mm|HoleType=Round|Shape=RoundedRectangle|*
%AMROUNDEDRECTD53*
21,1,0.7532,0.3750,0,0,180.0*
21,1,0.4250,0.7032,0,0,180.0*
1,1,0.3282,-0.2125,0.1875*
1,1,0.3282,0.2125,0.1875*
1,1,0.3282,0.2125,-0.1875*
1,1,0.3282,-0.2125,-0.1875*
%
%ADD53ROUNDEDRECTD53*%
%ADD54R,2.0032X1.4032*%
%ADD55C,1.2032*%
%ADD56C,1.2702*%
%ADD57C,2.6032*%
%ADD58C,1.4732*%
%ADD59C,0.7032*%
D21*
X1064650Y665950D02*
D03*
D22*
X1041750D02*
D03*
X1018850D02*
D03*
D23*
X1041750Y600050D02*
D03*
D34*
X1109750Y764750D02*
D03*
Y758250D02*
D03*
Y751750D02*
D03*
Y745250D02*
D03*
Y738750D02*
D03*
D35*
X1110600Y776625D02*
D03*
Y726875D02*
D03*
D36*
X1136350Y767250D02*
D03*
D37*
Y740250D02*
D03*
D38*
Y785500D02*
D03*
Y718000D02*
D03*
D39*
X824500Y838000D02*
D03*
Y833000D02*
D03*
Y828000D02*
D03*
Y823000D02*
D03*
Y818000D02*
D03*
Y813000D02*
D03*
X864500Y838000D02*
D03*
Y833000D02*
D03*
Y828000D02*
D03*
Y823000D02*
D03*
Y818000D02*
D03*
Y813000D02*
D03*
D40*
X832000Y805750D02*
D03*
X837000D02*
D03*
X842000D02*
D03*
X847000D02*
D03*
X852000D02*
D03*
X857000D02*
D03*
X832000Y845250D02*
D03*
X837000D02*
D03*
X842000D02*
D03*
X847000D02*
D03*
X852000D02*
D03*
X857000D02*
D03*
D41*
X844500Y825500D02*
D03*
D42*
X885500Y636750D02*
D03*
X985000D02*
D03*
D43*
X904000Y608750D02*
D03*
X941500D02*
D03*
X916500D02*
D03*
X929000D02*
D03*
X954000D02*
D03*
X966500D02*
D03*
D44*
X923580Y766640D02*
D03*
Y761640D02*
D03*
Y756640D02*
D03*
Y751640D02*
D03*
Y746640D02*
D03*
Y741640D02*
D03*
Y736640D02*
D03*
Y731640D02*
D03*
Y726640D02*
D03*
Y721640D02*
D03*
Y716640D02*
D03*
Y711640D02*
D03*
X991580D02*
D03*
Y716640D02*
D03*
Y721640D02*
D03*
Y726640D02*
D03*
Y731640D02*
D03*
Y736640D02*
D03*
Y741640D02*
D03*
Y746640D02*
D03*
Y751640D02*
D03*
Y756640D02*
D03*
Y761640D02*
D03*
Y766640D02*
D03*
D45*
X930080Y705140D02*
D03*
X935080D02*
D03*
X940080D02*
D03*
X945080D02*
D03*
X950080D02*
D03*
X955080D02*
D03*
X960080D02*
D03*
X965080D02*
D03*
X970080D02*
D03*
X975080D02*
D03*
X980080D02*
D03*
X985080D02*
D03*
Y773140D02*
D03*
X980080D02*
D03*
X975080D02*
D03*
X970080D02*
D03*
X965080D02*
D03*
X960080D02*
D03*
X955080D02*
D03*
X950080D02*
D03*
X945080D02*
D03*
X940080D02*
D03*
X935080D02*
D03*
X930080D02*
D03*
D46*
X957580Y739140D02*
D03*
D47*
X818500Y720000D02*
D03*
X827500D02*
D03*
X832000Y791500D02*
D03*
X823000D02*
D03*
X855250D02*
D03*
X846250D02*
D03*
X853500Y860500D02*
D03*
X862500D02*
D03*
X987500Y690000D02*
D03*
X996500D02*
D03*
X924500Y800000D02*
D03*
X915500D02*
D03*
X966000Y690000D02*
D03*
X975000D02*
D03*
X1037000Y877750D02*
D03*
X1028000D02*
D03*
X1068000Y717750D02*
D03*
X1077000D02*
D03*
D48*
X818750Y733000D02*
D03*
X824250D02*
D03*
X1114500Y643500D02*
D03*
X1120000D02*
D03*
X945000Y790000D02*
D03*
X939500D02*
D03*
X1056250Y876000D02*
D03*
X1061750D02*
D03*
X1029750Y715000D02*
D03*
X1035250D02*
D03*
X937000Y806750D02*
D03*
X942500D02*
D03*
X923750Y788000D02*
D03*
X929250D02*
D03*
D49*
X1021600Y825500D02*
D03*
X1034300D02*
D03*
X1047000D02*
D03*
X1021600Y838200D02*
D03*
X1034300D02*
D03*
X1047000D02*
D03*
D50*
X1120000Y630250D02*
D03*
X1110000D02*
D03*
X1035000Y726750D02*
D03*
X1025000D02*
D03*
X1067000Y733000D02*
D03*
X1077000D02*
D03*
D51*
X1091000Y644930D02*
D03*
Y622070D02*
D03*
D52*
X1047070Y685000D02*
D03*
X1069930D02*
D03*
D53*
X888750Y798250D02*
D03*
Y789250D02*
D03*
X887500Y767500D02*
D03*
Y758500D02*
D03*
X907500Y726500D02*
D03*
Y717500D02*
D03*
X905000Y767000D02*
D03*
Y758000D02*
D03*
X1022750Y771750D02*
D03*
Y762750D02*
D03*
X862750Y714000D02*
D03*
Y723000D02*
D03*
X1055250Y729500D02*
D03*
Y720500D02*
D03*
D54*
X850000Y682000D02*
D03*
X810000D02*
D03*
Y658000D02*
D03*
X850000D02*
D03*
D55*
X800000Y870000D02*
D03*
Y600000D02*
D03*
X1150000D02*
D03*
Y870000D02*
D03*
D56*
X1008900Y842010D02*
D03*
Y821690D02*
D03*
X1059700Y831850D02*
D03*
D57*
X1027950Y806450D02*
D03*
X1059700D02*
D03*
Y857250D02*
D03*
X1027950D02*
D03*
D58*
X877000Y812250D02*
D03*
X876796Y841317D02*
D03*
X831056Y773840D02*
D03*
X832000Y781050D02*
D03*
X975080Y790956D02*
D03*
X1033780Y786130D02*
D03*
X999549Y677613D02*
D03*
X910844Y813646D02*
D03*
X1032764Y762750D02*
D03*
X1006348Y690000D02*
D03*
X864616Y874604D02*
D03*
X904000Y637794D02*
D03*
X895495Y714248D02*
D03*
X997966Y781050D02*
D03*
X852424Y767500D02*
D03*
X894334Y589788D02*
D03*
X824992Y745744D02*
D03*
X927265Y814921D02*
D03*
X996500Y701294D02*
D03*
X868680Y751840D02*
D03*
X1081024Y658622D02*
D03*
X966500D02*
D03*
X1106678Y711200D02*
D03*
X1020064Y710946D02*
D03*
X1017670Y781050D02*
D03*
X1048512Y787400D02*
D03*
X992886Y800862D02*
D03*
X960080Y845058D02*
D03*
X897128D02*
D03*
D59*
X839000Y820000D02*
D03*
X850000D02*
D03*
Y831000D02*
D03*
X839000D02*
D03*
X935580Y761140D02*
D03*
X946580D02*
D03*
X957580D02*
D03*
X968580D02*
D03*
X979580D02*
D03*
X935580Y750140D02*
D03*
X946580D02*
D03*
X957580D02*
D03*
X968580D02*
D03*
X979580D02*
D03*
X935580Y739140D02*
D03*
X946580D02*
D03*
X957580D02*
D03*
X968580D02*
D03*
X979580D02*
D03*
X935580Y728140D02*
D03*
X946580D02*
D03*
X957580D02*
D03*
X968580D02*
D03*
X979580D02*
D03*
X935580Y717140D02*
D03*
X946580D02*
D03*
X957580D02*
D03*
X968580D02*
D03*
X979580D02*
D03*
M02*
