G04*
G04 #@! TF.GenerationSoftware,Altium Limited,Altium Designer,24.7.2 (38)*
G04*
G04 Layer_Color=65535*
%FSLAX44Y44*%
%MOMM*%
G71*
G04*
G04 #@! TF.SameCoordinates,BF9B61CE-A776-46F3-A754-6D37A8E32182*
G04*
G04*
G04 #@! TF.FilePolarity,Positive*
G04*
G01*
G75*
%ADD10C,0.2500*%
%ADD11C,0.2540*%
%ADD12C,0.2000*%
%ADD13C,0.3000*%
%ADD14C,0.1500*%
%ADD15C,0.1750*%
D10*
X816250Y838000D02*
G03*
X816250Y838000I-1250J0D01*
G01*
X1078000Y665950D02*
G03*
X1078000Y665950I-1250J0D01*
G01*
X915330Y774640D02*
G03*
X915330Y774640I-1250J0D01*
G01*
X865750Y682000D02*
G03*
X865750Y682000I-1250J0D01*
G01*
X1095600Y738500D02*
G03*
X1095600Y738500I-1250J0D01*
G01*
D11*
X976625Y604617D02*
G03*
X976625Y604617I-1027J0D01*
G01*
X823270Y686000D02*
X836730D01*
X823270Y654000D02*
X836730D01*
X826697Y623236D02*
X824157Y625775D01*
X819079D01*
X816540Y623236D01*
Y613079D01*
X819079Y610540D01*
X824157D01*
X826697Y613079D01*
Y618158D01*
X821618D01*
X831775Y610540D02*
Y625775D01*
X839393D01*
X841932Y623236D01*
Y618158D01*
X839393Y615618D01*
X831775D01*
X847010Y625775D02*
X852088D01*
X849549D01*
Y610540D01*
X847010D01*
X852088D01*
X867324Y625775D02*
X862245D01*
X859706Y623236D01*
Y613079D01*
X862245Y610540D01*
X867324D01*
X869863Y613079D01*
Y623236D01*
X867324Y625775D01*
X1111040Y698525D02*
Y685829D01*
X1113579Y683290D01*
X1118658D01*
X1121197Y685829D01*
Y698525D01*
X1136432Y695986D02*
X1133893Y698525D01*
X1128814D01*
X1126275Y695986D01*
Y693447D01*
X1128814Y690908D01*
X1133893D01*
X1136432Y688368D01*
Y685829D01*
X1133893Y683290D01*
X1128814D01*
X1126275Y685829D01*
X1141510Y698525D02*
Y683290D01*
X1149128D01*
X1151667Y685829D01*
Y688368D01*
X1149128Y690908D01*
X1141510D01*
X1149128D01*
X1151667Y693447D01*
Y695986D01*
X1149128Y698525D01*
X1141510D01*
D12*
X823000Y843750D02*
Y847000D01*
X826250D01*
X823000Y804000D02*
Y807250D01*
Y804000D02*
X826250D01*
X862750D02*
X866000D01*
Y807250D01*
Y843750D02*
Y847000D01*
X862750D02*
X866000D01*
X1074275Y615475D02*
Y650525D01*
X1009225Y615475D02*
X1074275D01*
X1009225D02*
Y650525D01*
X1074275D01*
X920580Y771890D02*
Y776140D01*
X924830D01*
X990330D02*
X994580D01*
Y771890D02*
Y776140D01*
Y702140D02*
Y706390D01*
X990330Y702140D02*
X994580D01*
X920580D02*
Y706390D01*
Y702140D02*
X924830D01*
X855000Y668000D02*
Y672000D01*
X805000Y668000D02*
Y672000D01*
X1099350Y711300D02*
X1126100D01*
X1099350Y792200D02*
X1126100D01*
X1099350Y787500D02*
Y792200D01*
Y711300D02*
Y716000D01*
D13*
X875250Y607750D02*
Y645250D01*
Y607750D02*
X887750Y595250D01*
X982750D01*
X995250Y607750D01*
Y645250D01*
D14*
X823000Y718000D02*
Y722000D01*
X886750Y793750D02*
X890750D01*
X827500Y789500D02*
Y793500D01*
X850750Y789500D02*
Y793500D01*
X858000Y858500D02*
Y862500D01*
X992000Y688000D02*
Y692000D01*
X885500Y763000D02*
X889500D01*
X905500Y722000D02*
X909500D01*
X903000Y762500D02*
X907000D01*
X920000Y798000D02*
Y802000D01*
X1020750Y767250D02*
X1024750D01*
X860750Y718500D02*
X864750D01*
X970500Y688000D02*
Y692000D01*
X1032500Y875750D02*
Y879750D01*
X1053250Y725000D02*
X1057250D01*
X1072500Y715750D02*
Y719750D01*
D15*
X1074300Y809350D02*
X1079300Y814350D01*
Y849350D01*
X1074300Y854350D02*
X1079300Y849350D01*
X999300Y806850D02*
Y856850D01*
Y806850D02*
X1011800D01*
X999300Y856850D02*
X1011800D01*
X1113472Y623778D02*
X1126000D01*
Y636722D01*
X1113472D02*
X1126000D01*
X1028471Y720278D02*
X1041000D01*
Y733221D01*
X1028471D02*
X1041000D01*
M02*
